# xmcd CD database file
#
# Track frame offsets:
#	150
#	16466
#	33217
#	52612
#	70032
#	85410
#	101342
#	120968
#	137336
#	157851
#	177785
#	193764
#	208342
#
# Disc length: 2992 seconds
#
# Revision: 6
# Processed by: cddbd v1.5.2PL0 Copyright (c) Steve Scherf et al.
# Submitted via: CDex 1.70beta2
#
DISCID=990bae0d
DTITLE=Viktoria Tolstoy - Pictures Of Me
DYEAR=2006
DGENRE=Jazz
TTITLE0=Women Of Santiago
TTITLE1=Have A Good Time
TTITLE2=South
TTITLE3=Te Amo Corazón
TTITLE4=Two Sails
TTITLE5=Kiss That Frog
TTITLE6=Absentee
TTITLE7=Strollin'
TTITLE8=Don't Make Me Wait
TTITLE9=Can't Help It
TTITLE10=Green Little Butterfly
TTITLE11=The Way Young Lovers Do
TTITLE12=Old And Wise
EXTD=YEAR: 2006
EXTT0=
EXTT1=
EXTT2=
EXTT3=
EXTT4=
EXTT5=
EXTT6=
EXTT7=
EXTT8=
EXTT9=
EXTT10=
EXTT11=
EXTT12=
PLAYORDER=
